Coordinates
version=1
nRows=17
nColumns=40
inDegrees=yes

Units are S.I. units (second, meters, Newtons, ...)
If the header above contains a line with 'inDegrees', this indicates whether rotational values are in degrees (yes) or radians (no).

endheader
time	pelvis_tilt	pelvis_list	pelvis_rotation	pelvis_tx	pelvis_ty	pelvis_tz	hip_flexion_r	hip_adduction_r	hip_rotation_r	knee_angle_r	knee_angle_r_beta	ankle_angle_r	subtalar_angle_r	mtp_angle_r	hip_flexion_l	hip_adduction_l	hip_rotation_l	knee_angle_l	knee_angle_l_beta	ankle_angle_l	subtalar_angle_l	mtp_angle_l	lumbar_extension	lumbar_bending	lumbar_rotation	arm_flex_r	arm_add_r	arm_rot_r	elbow_flex_r	pro_sup_r	wrist_flex_r	wrist_dev_r	arm_flex_l	arm_add_l	arm_rot_l	elbow_flex_l	pro_sup_l	wrist_flex_l	wrist_dev_l
      1.11000000	     -0.74468221	     -8.00173981	     89.71071233	      0.20325336	      0.90897571	     -0.52703783	     32.80467934	      0.97640215	     -5.12706939	      3.32394161	      0.05801373	     -0.25774878	     -0.00000000	      0.00000000	     -7.90009366	      4.68896404	      0.60668647	      0.42665143	      0.00744647	      8.25577050	     -0.00000000	      0.00000000	      0.51228714	     -0.10255199	     -6.31489612	      0.00000000	      0.00000000	      0.00000000	      0.00000000	      0.00000000	     -0.00000000	      0.00000000	      0.00000000	      0.00000000	      0.00000000	      0.00000000	      0.00000000	     -0.00000000	      0.00000000
      1.12000000	     -0.67126132	     -7.97716886	     89.73959186	      0.20398455	      0.90711627	     -0.53958764	     32.94727387	      1.21466304	     -5.56495736	      3.02480977	      0.05279289	     -0.31002179	      0.00000000	      0.00000000	     -8.56737975	      4.52920093	      0.68565517	      0.91798653	      0.01602189	      8.75893284	      0.00000000	      0.00000000	      0.56948503	      0.03789326	     -6.39765013	      0.00000000	      0.00000000	      0.00000000	      0.00000000	      0.00000000	      0.00000000	      0.00000000	      0.00000000	      0.00000000	      0.00000000	      0.00000000	      0.00000000	      0.00000000	      0.00000000
      1.13000000	     -0.51329379	     -7.93094301	     89.75383327	      0.20487278	      0.90550545	     -0.55218984	     33.05086411	      1.53412469	     -5.92868445	      3.01357013	      0.05259672	     -0.62617609	      0.00000000	      0.00000000	     -9.02206848	      4.25615933	      0.47711073	      1.84501976	      0.03220167	      9.11750562	      0.00000000	      0.00000000	      0.60399248	      0.24919928	     -6.33505056	      0.00000000	      0.00000000	      0.00000000	      0.00000000	      0.00000000	      0.00000000	      0.00000000	      0.00000000	      0.00000000	      0.00000000	      0.00000000	      0.00000000	      0.00000000	      0.00000000
      1.14000000	     -0.33565579	     -7.89526138	     89.76511560	      0.20577478	      0.90413129	     -0.56483071	     33.15991116	      1.84316579	     -6.35775863	      3.28097560	      0.05726383	     -1.04173930	      0.00000000	      0.00000000	     -9.33862160	      3.94283298	      0.22217796	      2.98148777	      0.05203678	      9.28066542	      0.00000000	      0.00000000	      0.64803891	      0.48820559	     -6.25084363	      0.00000000	      0.00000000	      0.00000000	      0.00000000	      0.00000000	      0.00000000	      0.00000000	      0.00000000	      0.00000000	      0.00000000	      0.00000000	      0.00000000	      0.00000000	      0.00000000
      1.15000000	     -0.14752301	     -7.83815348	     89.77392568	      0.20663832	      0.90304357	     -0.57754297	     33.20986002	      2.13719326	     -6.76721394	      3.76948170	      0.06578987	     -1.56636985	      0.00000000	      0.00000000	     -9.51726293	      3.59770498	     -0.14067746	      4.39856855	      0.07676950	      9.27632412	      0.00000000	      0.00000000	      0.67263829	      0.77011115	     -6.17189171	      0.00000000	     -0.00000000	      0.00000000	      0.00000000	      0.00000000	      0.00000000	     -0.00000000	      0.00000000	      0.00000000	      0.00000000	      0.00000000	      0.00000000	     -0.00000000	     -0.00000000
      1.16000000	      0.07155722	     -7.78642173	     89.77680381	      0.20765796	      0.90221500	     -0.59025815	     33.24629236	      2.45276749	     -7.06957208	      4.48005516	      0.07819171	     -2.18211056	      0.00000000	     -0.00000000	     -9.48147299	      3.17814790	     -0.57764971	      6.16844756	      0.10765972	      9.13117491	      0.00000000	     -0.00000000	      0.70288694	      1.03723385	     -6.05024035	      0.00000000	      0.00000000	     -0.00000000	      0.00000000	      0.00000000	     -0.00000000	     -0.00000000	     -0.00000000	     -0.00000000	      0.00000000	      0.00000000	      0.00000000	      0.00000000	     -0.00000000
      1.17000000	      0.26063104	     -7.66312608	     89.78119038	      0.20859057	      0.90174982	     -0.60308749	     33.20393324	      2.69265414	     -7.49746027	      5.43553268	      0.09486794	     -2.85651638	      0.00000000	      0.00000000	     -9.41880366	      2.76262864	     -1.04152003	      8.08702010	      0.14114513	      8.60646856	      0.00000000	     -0.00000000	      0.65107910	      1.29539834	     -5.94048509	     -0.00000000	     -0.00000000	     -0.00000000	      0.00000000	      0.00000000	      0.00000000	      0.00000000	      0.00000000	      0.00000000	      0.00000000	      0.00000000	      0.00000000	     -0.00000000	     -0.00000000
      1.18000000	      0.44543285	     -7.51828455	     89.78343821	      0.20958864	      0.90156176	     -0.61597275	     33.10996718	      2.91309713	     -7.82425841	      6.55111615	      0.11433855	     -3.53892261	      0.00000000	      0.00000000	     -9.19656708	      2.31173127	     -1.50227390	     10.30088483	      0.17978436	      7.85624720	      0.00000000	      0.00000000	      0.58110890	      1.54339915	     -5.83189563	      0.00000000	      0.00000000	      0.00000000	      0.00000000	      0.00000000	      0.00000000	      0.00000000	      0.00000000	      0.00000000	      0.00000000	      0.00000000	      0.00000000	      0.00000000	      0.00000000
      1.19000000	      0.63184446	     -7.40750008	     89.77875339	      0.21057315	      0.90154706	     -0.62886151	     33.03856344	      3.11772783	     -8.06497672	      7.82601511	      0.13658973	     -4.19918522	      0.00000000	      0.00000000	     -8.68157160	      1.80141199	     -2.05499499	     12.95081286	      0.22603433	      6.98419848	      0.00000000	      0.00000000	      0.57216590	      1.81216222	     -5.67609602	      0.00000000	      0.00000000	      0.00000000	      0.00000000	      0.00000000	      0.00000000	      0.00000000	      0.00000000	      0.00000000	      0.00000000	      0.00000000	      0.00000000	      0.00000000	      0.00000000
      1.20000000	      0.72624925	     -7.15529199	     89.77753977	      0.21151287	      0.90196318	     -0.64183378	     32.79068966	      3.20101037	     -8.29582390	      9.22252725	      0.16096347	     -4.81518498	      0.00000000	      0.00000000	     -8.23841657	      1.35871133	     -2.50952839	     15.66709270	      0.27344235	      5.59021998	      0.00000000	      0.00000000	      0.39925450	      1.96075637	     -5.57823929	      0.00000000	      0.00000000	      0.00000000	      0.00000000	      0.00000000	      0.00000000	      0.00000000	      0.00000000	      0.00000000	      0.00000000	      0.00000000	      0.00000000	      0.00000000	      0.00000000
      1.21000000	      0.83208753	     -7.11340035	     89.77774687	      0.21249270	      0.90222056	     -0.65459944	     32.74950955	      3.29592071	     -8.37487220	     10.67346527	      0.18628711	     -5.31404466	      0.00000000	      0.00000000	     -7.23385291	      0.84084418	     -2.96439739	     18.93256137	      0.33043553	      4.34110242	      0.00000000	      0.00000000	      0.43676747	      2.12241904	     -5.43320295	      0.00000000	      0.00000000	      0.00000000	      0.00000000	      0.00000000	      0.00000000	      0.00000000	      0.00000000	      0.00000000	      0.00000000	      0.00000000	      0.00000000	      0.00000000	      0.00000000
      1.22000000	      0.97661194	     -6.88558974	     89.77195841	      0.21350032	      0.90291696	     -0.66753739	     32.46424845	      3.42294386	     -8.48640896	     12.17105869	      0.21242505	     -5.68267399	      0.00000000	      0.00000000	     -6.37867807	      0.25012629	     -3.34216091	     22.21082532	      0.38765203	      2.57643027	      0.00000000	      0.00000000	      0.29686015	      2.33228893	     -5.29333624	      0.00000000	      0.00000000	      0.00000000	      0.00000000	      0.00000000	      0.00000000	      0.00000000	      0.00000000	      0.00000000	      0.00000000	      0.00000000	      0.00000000	      0.00000000	      0.00000000
      1.23000000	      1.06962084	     -6.63646716	     89.76638466	      0.21451103	      0.90380312	     -0.68039572	     32.10592018	      3.49947099	     -8.52660955	     13.63688402	      0.23800853	     -5.94342341	      0.00000000	      0.00000000	     -5.42534797	     -0.31239130	     -3.63524015	     25.58578205	      0.44655614	      0.64297426	      0.00000000	      0.00000000	      0.11672168	      2.47683385	     -5.14562405	      0.00000000	      0.00000000	      0.00000000	      0.00000000	      0.00000000	      0.00000000	      0.00000000	      0.00000000	      0.00000000	      0.00000000	      0.00000000	      0.00000000	      0.00000000	      0.00000000
      1.24000000	      1.14172016	     -6.49523748	     89.76518866	      0.21547003	      0.90466932	     -0.69305909	     31.79452953	      3.56815042	     -8.44740813	     14.99566244	      0.26172368	     -6.02849705	      0.00000000	      0.00000000	     -4.16646440	     -0.85963104	     -3.76977504	     29.17031984	      0.50911813	     -1.19416464	      0.00000000	      0.00000000	      0.03137599	      2.60179970	     -5.02074505	      0.00000000	      0.00000000	      0.00000000	      0.00000000	      0.00000000	      0.00000000	      0.00000000	      0.00000000	      0.00000000	      0.00000000	      0.00000000	      0.00000000	      0.00000000	      0.00000000
      1.25000000	      1.18381799	     -6.47938491	     89.76125667	      0.21645432	      0.90546089	     -0.70552971	     31.58435291	      3.62132670	     -8.30287484	     16.29542519	      0.28440882	     -5.99468684	      0.00000000	      0.00000000	     -2.61876668	     -1.37265008	     -3.78299141	     32.87200858	      0.57372478	     -2.90224193	      0.00000000	      0.00000000	      0.09722195	      2.68128612	     -4.89108465	      0.00000000	      0.00000000	      0.00000000	      0.00000000	      0.00000000	      0.00000000	      0.00000000	      0.00000000	      0.00000000	      0.00000000	      0.00000000	      0.00000000	      0.00000000	      0.00000000
      1.26000000	      1.26749961	     -6.36519802	     89.75478103	      0.21744435	      0.90656587	     -0.71796910	     31.17709536	      3.72476328	     -8.18331350	     17.44202517	      0.30442077	     -5.77780445	      0.00000000	      0.00000000	     -1.14900002	     -1.91780307	     -3.72279627	     36.43430788	      0.63589863	     -4.66205372	      0.00000000	      0.00000000	      0.03716924	      2.81181278	     -4.74398437	      0.00000000	      0.00000000	      0.00000000	      0.00000000	      0.00000000	      0.00000000	      0.00000000	      0.00000000	      0.00000000	      0.00000000	      0.00000000	      0.00000000	      0.00000000	      0.00000000
      1.27000000	      1.36038730	     -6.27600878	     89.74859975	      0.21842840	      0.90777937	     -0.73026373	     30.71196043	      3.85465672	     -8.03944954	     18.42029831	      0.32149485	     -5.42468055	      0.00000000	      0.00000000	      0.42052016	     -2.44940840	     -3.56945199	     39.91448957	      0.69663926	     -6.21650014	      0.00000000	      0.00000000	     -0.00774455	      2.94903653	     -4.59948804	      0.00000000	      0.00000000	      0.00000000	      0.00000000	      0.00000000	      0.00000000	      0.00000000	      0.00000000	      0.00000000	      0.00000000	      0.00000000	      0.00000000	      0.00000000	      0.00000000
